<svg width="1200" height="800" viewBox="0 0 1200 800" xmlns="http://www.w3.org/2000/svg">
<defs>
  <linearGradient id="grad1" x1="0%" y1="0%" x2="100%" y2="100%">
    <stop offset="0%" style="stop-color:#00ffff;stop-opacity:0.2" />
    <stop offset="100%" style="stop-color:#0088ff;stop-opacity:0.05" />
  </linearGradient>
  <filter id="glow">
    <feGaussianBlur stdDeviation="2.5" result="coloredBlur"/>
    <feMerge>
      <feMergeNode in="coloredBlur"/><feMergeNode in="SourceGraphic"/>
    </feMerge>
  </filter>
</defs>
<rect width="1200" height="800" fill="url(#grad1)" />
<!-- Grid -->
<line x1="0" y1="0" x2="0" y2="800" stroke="#00ffff" stroke-width="0.5" stroke-opacity="0.3" />
<line x1="40" y1="0" x2="40" y2="800" stroke="#00ffff" stroke-width="0.5" stroke-opacity="0.3" />
<line x1="80" y1="0" x2="80" y2="800" stroke="#00ffff" stroke-width="0.5" stroke-opacity="0.3" />
<line x1="120" y1="0" x2="120" y2="800" stroke="#00ffff" stroke-width="0.5" stroke-opacity="0.3" />
<line x1="160" y1="0" x2="160" y2="800" stroke="#00ffff" stroke-width="0.5" stroke-opacity="0.3" />
<line x1="200" y1="0" x2="200" y2="800" stroke="#00ffff" stroke-width="0.5" stroke-opacity="0.3" />
<line x1="240" y1="0" x2="240" y2="800" stroke="#00ffff" stroke-width="0.5" stroke-opacity="0.3" />
<line x1="280" y1="0" x2="280" y2="800" stroke="#00ffff" stroke-width="0.5" stroke-opacity="0.3" />
<line x1="320" y1="0" x2="320" y2="800" stroke="#00ffff" stroke-width="0.5" stroke-opacity="0.3" />
<line x1="360" y1="0" x2="360" y2="800" stroke="#00ffff" stroke-width="0.5" stroke-opacity="0.3" />
<line x1="400" y1="0" x2="400" y2="800" stroke="#00ffff" stroke-width="0.5" stroke-opacity="0.3" />
<line x1="440" y1="0" x2="440" y2="800" stroke="#00ffff" stroke-width="0.5" stroke-opacity="0.3" />
<line x1="480" y1="0" x2="480" y2="800" stroke="#00ffff" stroke-width="0.5" stroke-opacity="0.3" />
<line x1="520" y1="0" x2="520" y2="800" stroke="#00ffff" stroke-width="0.5" stroke-opacity="0.3" />
<line x1="560" y1="0" x2="560" y2="800" stroke="#00ffff" stroke-width="0.5" stroke-opacity="0.3" />
<line x1="600" y1="0" x2="600" y2="800" stroke="#00ffff" stroke-width="0.5" stroke-opacity="0.3" />
<line x1="640" y1="0" x2="640" y2="800" stroke="#00ffff" stroke-width="0.5" stroke-opacity="0.3" />
<line x1="680" y1="0" x2="680" y2="800" stroke="#00ffff" stroke-width="0.5" stroke-opacity="0.3" />
<line x1="720" y1="0" x2="720" y2="800" stroke="#00ffff" stroke-width="0.5" stroke-opacity="0.3" />
<line x1="760" y1="0" x2="760" y2="800" stroke="#00ffff" stroke-width="0.5" stroke-opacity="0.3" />
<line x1="800" y1="0" x2="800" y2="800" stroke="#00ffff" stroke-width="0.5" stroke-opacity="0.3" />
<line x1="840" y1="0" x2="840" y2="800" stroke="#00ffff" stroke-width="0.5" stroke-opacity="0.3" />
<line x1="880" y1="0" x2="880" y2="800" stroke="#00ffff" stroke-width="0.5" stroke-opacity="0.3" />
<line x1="920" y1="0" x2="920" y2="800" stroke="#00ffff" stroke-width="0.5" stroke-opacity="0.3" />
<line x1="960" y1="0" x2="960" y2="800" stroke="#00ffff" stroke-width="0.5" stroke-opacity="0.3" />
<line x1="1000" y1="0" x2="1000" y2="800" stroke="#00ffff" stroke-width="0.5" stroke-opacity="0.3" />
<line x1="1040" y1="0" x2="1040" y2="800" stroke="#00ffff" stroke-width="0.5" stroke-opacity="0.3" />
<line x1="1080" y1="0" x2="1080" y2="800" stroke="#00ffff" stroke-width="0.5" stroke-opacity="0.3" />
<line x1="1120" y1="0" x2="1120" y2="800" stroke="#00ffff" stroke-width="0.5" stroke-opacity="0.3" />
<line x1="1160" y1="0" x2="1160" y2="800" stroke="#00ffff" stroke-width="0.5" stroke-opacity="0.3" />
<line x1="0" y1="0" x2="1200" y2="0" stroke="#00ffff" stroke-width="0.5" stroke-opacity="0.3" />
<line x1="0" y1="40" x2="1200" y2="40" stroke="#00ffff" stroke-width="0.5" stroke-opacity="0.3" />
<line x1="0" y1="80" x2="1200" y2="80" stroke="#00ffff" stroke-width="0.5" stroke-opacity="0.3" />
<line x1="0" y1="120" x2="1200" y2="120" stroke="#00ffff" stroke-width="0.5" stroke-opacity="0.3" />
<line x1="0" y1="160" x2="1200" y2="160" stroke="#00ffff" stroke-width="0.5" stroke-opacity="0.3" />
<line x1="0" y1="200" x2="1200" y2="200" stroke="#00ffff" stroke-width="0.5" stroke-opacity="0.3" />
<line x1="0" y1="240" x2="1200" y2="240" stroke="#00ffff" stroke-width="0.5" stroke-opacity="0.3" />
<line x1="0" y1="280" x2="1200" y2="280" stroke="#00ffff" stroke-width="0.5" stroke-opacity="0.3" />
<line x1="0" y1="320" x2="1200" y2="320" stroke="#00ffff" stroke-width="0.5" stroke-opacity="0.3" />
<line x1="0" y1="360" x2="1200" y2="360" stroke="#00ffff" stroke-width="0.5" stroke-opacity="0.3" />
<line x1="0" y1="400" x2="1200" y2="400" stroke="#00ffff" stroke-width="0.5" stroke-opacity="0.3" />
<line x1="0" y1="440" x2="1200" y2="440" stroke="#00ffff" stroke-width="0.5" stroke-opacity="0.3" />
<line x1="0" y1="480" x2="1200" y2="480" stroke="#00ffff" stroke-width="0.5" stroke-opacity="0.3" />
<line x1="0" y1="520" x2="1200" y2="520" stroke="#00ffff" stroke-width="0.5" stroke-opacity="0.3" />
<line x1="0" y1="560" x2="1200" y2="560" stroke="#00ffff" stroke-width="0.5" stroke-opacity="0.3" />
<line x1="0" y1="600" x2="1200" y2="600" stroke="#00ffff" stroke-width="0.5" stroke-opacity="0.3" />
<line x1="0" y1="640" x2="1200" y2="640" stroke="#00ffff" stroke-width="0.5" stroke-opacity="0.3" />
<line x1="0" y1="680" x2="1200" y2="680" stroke="#00ffff" stroke-width="0.5" stroke-opacity="0.3" />
<line x1="0" y1="720" x2="1200" y2="720" stroke="#00ffff" stroke-width="0.5" stroke-opacity="0.3" />
<line x1="0" y1="760" x2="1200" y2="760" stroke="#00ffff" stroke-width="0.5" stroke-opacity="0.3" />
  <g transform="translate(300.0,200.0)" filter="url(#glow)">
    <rect x="-30" y="-30" width="60" height="60" fill="none" stroke="#00ffff" stroke-width="2" rx="5" />
    <text x="0" y="5" font-family="monospace" font-size="20" fill="#00ffff" text-anchor="middle">AW</text>
    <text x="0" y="45" font-family="monospace" font-size="10" fill="#00ffff" text-anchor="middle" opacity="0.7">Alice Wonderland</text>
  </g>
  <g transform="translate(500.0,200.0)" filter="url(#glow)">
    <rect x="-30" y="-30" width="60" height="60" fill="none" stroke="#00ffff" stroke-width="2" rx="5" />
    <text x="0" y="5" font-family="monospace" font-size="20" fill="#00ffff" text-anchor="middle">BB</text>
    <text x="0" y="45" font-family="monospace" font-size="10" fill="#00ffff" text-anchor="middle" opacity="0.7">Bob Builder</text>
  </g>
  <g transform="translate(400.0,400.0)" filter="url(#glow)">
    <rect x="-30" y="-30" width="60" height="60" fill="none" stroke="#00ffff" stroke-width="2" rx="5" />
    <text x="0" y="5" font-family="monospace" font-size="20" fill="#00ffff" text-anchor="middle">CB</text>
    <text x="0" y="45" font-family="monospace" font-size="10" fill="#00ffff" text-anchor="middle" opacity="0.7">Charlie Brown</text>
  </g>
  <g transform="translate(700.0,600.0)" filter="url(#glow)">
    <rect x="-30" y="-30" width="60" height="60" fill="none" stroke="#00ffff" stroke-width="2" rx="5" />
    <text x="0" y="5" font-family="monospace" font-size="20" fill="#00ffff" text-anchor="middle">GU</text>
    <text x="0" y="45" font-family="monospace" font-size="10" fill="#00ffff" text-anchor="middle" opacity="0.7">Ghost User</text>
  </g>
</svg>